<?xml version="1.0" standalone="no"?>
<!DOCTYPE svg PUBLIC "-//W3C//DTD SVG 20010904//EN"
 "http://www.w3.org/TR/2001/REC-SVG-20010904/DTD/svg10.dtd">
<svg version="1.0" xmlns="http://www.w3.org/2000/svg"
 width="1250.000000pt" height="536.000000pt" viewBox="0 0 1250.000000 536.000000"
 preserveAspectRatio="xMidYMid meet">

<g transform="translate(0.000000,536.000000) scale(0.100000,-0.100000)"
fill="#000000" stroke="none">
<path d="M2073 3473 l-333 -3 0 -130 0 -130 210 0 210 0 0 -210 0 -210 125 0
125 0 0 -80 0 -80 -125 0 -125 0 -2 -207 -3 -208 -207 -3 -208 -2 0 -130 0
-130 4833 3 4832 2 3 763 2 762 -4502 -2 c-2477 -2 -4653 -4 -4835 -5z m895
-346 c7 -8 13 -67 14 -138 l3 -124 120 0 120 0 3 130 c2 88 7 132 15 137 20
13 251 10 265 -4 18 -18 17 -821 0 -836 -15 -12 -247 -16 -265 -4 -9 5 -13 53
-15 157 l-3 150 -120 0 -120 0 -3 -144 c-1 -86 -7 -150 -14 -158 -7 -9 -42
-13 -123 -13 -63 0 -120 3 -129 6 -14 5 -16 52 -16 424 0 325 3 419 13 423 6
3 64 6 128 6 85 1 120 -3 127 -12z m1163 3 c77 -15 147 -52 202 -107 96 -96
133 -199 124 -343 -8 -125 -36 -190 -117 -271 -73 -73 -111 -94 -208 -114 -87
-19 -462 -21 -480 -3 -17 17 -17 819 0 836 15 15 400 17 479 2z m1094 -12 c3
-13 5 -61 3 -108 l-3 -85 -177 -3 c-169 -2 -178 -3 -189 -24 -13 -25 -5 -88
13 -100 7 -4 72 -8 145 -8 150 0 140 7 143 -98 2 -107 9 -102 -149 -102 -93 0
-141 -4 -149 -12 -8 -8 -12 -56 -12 -149 0 -123 -2 -138 -18 -143 -22 -7 -218
0 -232 9 -15 10 -14 817 2 833 9 9 93 12 315 12 l303 0 5 -22z m629 7 c37 -8
87 -25 110 -39 88 -51 155 -152 159 -237 l2 -34 -109 -5 c-110 -5 -146 3 -146
34 0 25 -60 74 -99 81 -87 15 -153 -50 -174 -170 -15 -87 8 -184 54 -230 27
-27 35 -30 95 -30 61 0 68 2 92 31 15 17 35 45 44 63 l17 32 113 -3 113 -3 3
-38 c8 -92 -95 -226 -206 -267 -118 -45 -281 -36 -393 20 -206 105 -269 403
-134 635 80 135 267 201 459 160z m3384 3 c7 -7 12 -33 12 -58 0 -25 -5 -51
-12 -58 -7 -7 -37 -12 -68 -12 -31 0 -61 5 -68 12 -7 7 -12 33 -12 58 0 25 5
51 12 58 16 16 120 16 136 0z m630 -52 c4 -70 -2 -76 -79 -76 -67 0 -77 9 -77
70 -1 63 9 71 87 68 l66 -3 3 -59z m-310 -51 c2 -43 8 -85 13 -91 6 -7 25 -14
42 -16 31 -3 32 -5 32 -48 0 -44 -1 -45 -35 -48 -19 -2 -38 -9 -42 -15 -11
-17 -10 -331 1 -360 6 -16 23 -29 45 -37 34 -11 36 -14 36 -55 0 -56 -16 -67
-93 -67 -74 0 -129 21 -146 58 -7 16 -11 100 -11 237 0 117 -4 217 -8 224 -4
6 -21 13 -37 15 -28 3 -30 5 -30 48 0 42 2 45 28 48 37 4 48 30 46 106 -1 35
1 69 5 75 5 8 32 11 79 9 l72 -3 3 -80z m-2188 -97 c57 -30 97 -82 115 -149
19 -69 19 -163 2 -177 -8 -7 -71 -13 -153 -14 l-139 -3 -3 -57 c-3 -64 7 -90
44 -114 36 -24 70 -6 94 51 21 49 40 59 106 53 38 -3 39 -4 42 -45 3 -45 -21
-105 -55 -135 -49 -45 -175 -63 -264 -38 -58 16 -114 85 -129 156 -16 77 -17
245 -1 311 15 63 72 131 133 162 60 29 149 29 208 -1z m547 -2 c43 -22 81 -67
98 -115 31 -88 16 -111 -70 -108 -45 2 -51 5 -63 32 -33 77 -36 80 -76 80 -59
0 -77 -31 -84 -143 -7 -132 5 -219 33 -248 47 -47 98 -20 118 61 l12 50 70 0
70 0 3 -35 c8 -78 -39 -158 -113 -191 -46 -21 -175 -26 -222 -8 -34 13 -80 55
-99 91 -23 43 -45 197 -38 263 21 216 101 301 271 290 34 -2 75 -11 90 -19z
m2411 0 c74 -38 115 -133 110 -258 l-3 -73 -150 -5 -150 -5 -3 -47 c-6 -96 52
-161 107 -120 14 10 29 31 34 48 16 47 26 54 83 54 47 0 56 -3 65 -23 26 -56
-44 -173 -117 -197 -49 -16 -174 -14 -215 3 -83 36 -118 110 -126 269 -11 215
39 331 157 367 47 14 170 7 208 -13z m532 -4 c41 -20 75 -67 84 -118 10 -50
-5 -64 -68 -64 -58 0 -70 6 -80 38 -18 56 -90 65 -122 16 -14 -21 -15 -29 -4
-48 13 -25 40 -39 144 -77 33 -12 78 -39 100 -59 39 -37 41 -40 44 -112 2 -62
-1 -79 -20 -113 -43 -74 -148 -111 -267 -94 -114 16 -171 70 -171 160 0 40 3
49 18 50 9 0 31 2 47 4 53 5 73 -5 85 -41 21 -62 75 -81 124 -43 21 16 26 29
24 52 -4 38 -32 59 -122 91 -130 47 -176 98 -176 196 0 88 49 149 140 175 66
18 169 12 220 -13z m-4006 4 c43 -18 83 -71 91 -122 9 -53 -7 -66 -77 -62 -50
3 -54 5 -73 41 -11 21 -30 40 -43 44 -52 13 -100 -38 -79 -83 10 -23 44 -41
137 -71 78 -26 145 -93 154 -153 9 -65 -16 -140 -59 -179 -46 -40 -69 -45
-190 -46 -78 0 -107 4 -133 18 -41 22 -69 68 -78 126 -8 54 6 68 71 69 49 1
57 -5 83 -58 30 -62 108 -67 138 -9 15 30 15 33 -4 58 -12 16 -55 41 -116 67
-111 47 -150 80 -167 144 -23 87 13 168 91 208 36 18 61 22 132 22 53 0 102
-6 122 -14z m1427 -17 c5 -7 9 -114 9 -236 0 -241 3 -253 56 -253 74 0 84 37
84 298 l0 203 83 -3 82 -3 3 -290 c2 -286 2 -290 -19 -307 -27 -23 -90 -23
-131 -2 -29 15 -33 15 -73 -5 -58 -29 -145 -29 -192 1 -62 38 -67 63 -71 343
-3 232 -2 250 15 263 24 18 141 12 154 -9z m576 -8 c10 -14 15 -13 52 7 26 15
53 22 73 20 l33 -3 3 -66 3 -66 -57 -14 c-95 -23 -98 -31 -104 -277 l-5 -207
-69 -3 c-38 -2 -73 1 -79 7 -6 6 -7 120 -2 315 l7 305 47 4 c58 4 83 -1 98
-22z m381 16 c9 -7 12 -83 12 -317 0 -345 6 -320 -76 -320 -89 0 -84 -20 -84
323 0 228 3 306 12 315 15 15 117 14 136 -1z m630 1 c9 -9 12 -92 12 -313 0
-221 -3 -304 -12 -313 -7 -7 -39 -12 -73 -12 -34 0 -66 5 -73 12 -9 9 -12 93
-12 315 0 277 1 303 18 312 24 14 125 14 140 -1z"/>
<path d="M3925 2908 c-3 -13 -4 -111 -3 -218 l3 -195 75 -3 c65 -2 81 0 110
20 56 37 70 77 70 198 0 121 -14 161 -69 197 -28 19 -48 23 -107 23 -68 0 -74
-2 -79 -22z"/>
<path d="M7220 2812 c-17 -14 -23 -30 -24 -63 l-1 -44 58 -3 c73 -4 87 7 77
54 -16 69 -64 93 -110 56z"/>
<path d="M10167 2810 c-27 -22 -41 -61 -32 -91 5 -16 16 -19 70 -19 59 0 65 2
70 23 11 43 -28 107 -64 107 -10 0 -30 -9 -44 -20z"/>
<path d="M902 3133 l3 -338 125 0 125 0 3 208 2 207 210 0 210 0 0 130 0 130
-340 0 -340 0 2 -337z"/>
<path d="M1439 2933 c0 -5 0 -105 0 -223 l1 -215 224 -3 225 -2 -2 222 -2 223
-222 3 c-123 1 -223 -1 -224 -5z"/>
<path d="M902 2293 l3 -338 338 -3 337 -2 0 130 0 130 -207 2 -208 3 -3 208
-2 207 -130 0 -130 0 2 -337z"/>
</g>
</svg>
