<?xml version="1.0" standalone="no"?>
<!DOCTYPE svg PUBLIC "-//W3C//DTD SVG 20010904//EN"
 "http://www.w3.org/TR/2001/REC-SVG-20010904/DTD/svg10.dtd">
<svg version="1.0" xmlns="http://www.w3.org/2000/svg"
 width="1000.000000pt" height="1000.000000pt" viewBox="0 0 1000.000000 1000.000000"
 preserveAspectRatio="xMidYMid meet">

<g transform="translate(0.000000,1000.000000) scale(0.100000,-0.100000)"
fill="#000000" stroke="none">
<path d="M1430 5650 l0 -3610 3630 0 3630 0 0 3610 0 3610 -3630 0 -3630 0 0
-3610z m7048 -2 l-3 -3403 -3420 0 -3420 0 -3 3403 -2 3402 3425 0 3425 0 -2
-3402z"/>
<path d="M1882 5648 l3 -3153 3173 -3 3172 -2 0 3155 0 3155 -3175 0 -3175 0
2 -3152z m1818 1827 l0 -205 -170 0 -170 0 0 -440 0 -440 -285 0 -285 0 0 440
0 440 -172 2 -173 3 -3 190 c-1 104 0 195 2 202 4 10 132 13 631 13 l625 0 0
-205z m1185 -440 l252 -640 -46 -7 c-25 -3 -150 -7 -277 -7 -174 -1 -234 2
-241 12 -5 6 -58 139 -118 294 -60 155 -110 281 -111 280 -1 -1 -50 -128 -110
-282 -59 -154 -112 -286 -117 -292 -7 -10 -67 -13 -241 -12 -127 0 -252 4
-277 7 l-46 7 248 630 c137 347 251 636 254 643 3 10 67 12 291 10 l287 -3
252 -640z m1365 440 l0 -205 -170 0 -170 0 0 -440 0 -440 -285 0 -285 0 -2
438 -3 437 -172 3 -173 2 0 205 0 205 630 0 630 0 0 -205z m1182 -438 c137
-351 247 -641 243 -645 -4 -4 -129 -9 -280 -10 l-272 -4 -60 154 c-33 84 -84
215 -114 292 -37 95 -56 134 -62 125 -5 -8 -57 -138 -116 -289 l-107 -275
-224 -3 c-124 -1 -250 1 -282 5 l-56 8 247 631 c137 347 251 636 255 643 5 8
83 11 292 9 l285 -3 251 -638z m-3223 -1627 c147 -366 275 -680 285 -697 40
-78 112 -133 172 -133 19 0 24 -5 24 -25 l0 -25 -285 0 -285 0 0 25 c0 21 5
25 31 25 17 0 46 7 65 16 64 30 59 91 -22 293 l-56 141 -280 -2 -280 -3 -59
-142 c-67 -160 -80 -220 -56 -256 15 -24 75 -47 121 -47 21 0 26 -5 26 -25 l0
-25 -231 0 c-228 0 -230 0 -227 21 2 15 18 25 58 39 96 33 94 28 430 850 139
338 257 621 263 628 5 7 17 12 24 10 9 -2 121 -267 282 -668z m2340 614 c73
-25 141 -44 149 -42 9 2 24 23 33 48 12 31 22 45 35 45 17 0 20 -18 36 -210
22 -277 22 -275 0 -275 -13 0 -27 21 -50 78 -60 148 -153 248 -269 292 -72 28
-214 37 -295 21 -143 -30 -264 -132 -337 -284 -66 -137 -76 -187 -75 -392 0
-167 2 -187 28 -270 90 -293 272 -455 516 -455 99 0 153 11 233 47 l57 26 0
274 c0 296 -4 326 -53 358 -14 9 -51 19 -82 22 -50 5 -56 8 -53 27 3 21 7 21
286 24 l282 2 0 -25 c0 -21 -5 -25 -31 -25 -52 0 -96 -27 -113 -71 -13 -33
-16 -88 -16 -324 l0 -285 -67 -34 c-274 -137 -659 -133 -893 9 -222 135 -350
375 -350 654 0 146 24 253 85 376 127 260 336 412 595 434 135 12 205 3 349
-45z m-1161 -6 c-3 -20 -10 -24 -63 -28 -74 -6 -109 -27 -127 -77 -20 -57 -19
-1213 1 -1261 17 -41 60 -65 131 -72 47 -4 55 -8 58 -27 l3 -23 -310 0 -311 0
0 24 c0 22 4 24 65 28 58 3 69 8 98 36 l32 32 3 613 c2 423 0 624 -8 650 -14
47 -67 77 -140 77 -47 0 -50 2 -50 25 l0 25 311 0 310 0 -3 -22z m-1625 -1809
c21 -5 52 -23 70 -39 l32 -29 -37 -38 c-38 -38 -38 -38 -53 -16 -31 44 -114
37 -136 -11 -17 -36 3 -62 80 -100 119 -60 161 -109 161 -186 0 -86 -53 -149
-142 -169 -84 -19 -190 12 -224 64 -11 18 -8 25 21 58 l33 38 30 -31 c25 -25
39 -30 76 -30 58 0 89 26 84 73 -3 29 -11 36 -86 77 -139 75 -175 124 -157
217 17 91 141 152 248 122z m3328 1 c30 -6 66 -15 82 -21 25 -11 27 -15 27
-75 l0 -64 -40 26 c-71 47 -183 45 -241 -3 -89 -75 -91 -243 -4 -311 61 -48
169 -49 240 -2 17 11 34 20 38 20 4 0 7 -28 5 -62 l-3 -62 -50 -20 c-30 -11
-76 -19 -115 -19 -125 -1 -218 51 -275 154 -27 49 -30 63 -30 144 0 74 4 97
23 132 48 92 116 143 213 162 61 12 69 12 130 1z m-4521 -295 l0 -286 -62 3
-63 3 -3 270 c-1 148 0 275 3 282 3 9 25 13 65 13 l60 0 0 -285z m470 126 c66
-88 129 -175 140 -193 l20 -33 0 193 0 192 60 0 60 0 0 -285 0 -285 -60 0 -60
0 -122 162 c-68 89 -133 178 -145 197 l-23 36 0 -197 0 -198 -60 0 -60 0 0
285 0 285 65 0 65 0 120 -159z m1160 -46 c5 -206 11 -234 50 -255 25 -13 93
-13 124 1 48 22 56 59 56 268 l0 191 66 0 66 0 -4 -217 c-3 -198 -5 -222 -25
-258 -41 -78 -99 -108 -213 -109 -128 -1 -214 50 -239 141 -6 21 -11 129 -11
241 l0 203 63 -3 62 -3 5 -200z m880 180 c97 -57 93 -218 -7 -271 l-40 -21 73
-122 c41 -67 74 -124 74 -127 0 -3 -32 -4 -72 -2 l-71 3 -66 119 -66 118 -3
-121 -3 -122 -62 3 -62 3 -3 283 -2 284 137 -4 c117 -2 143 -6 173 -23z m651
-240 c55 -143 102 -270 105 -283 6 -23 5 -23 -62 -20 l-69 3 -22 55 -22 55
-107 0 -107 0 -19 -57 -20 -58 -64 0 c-35 0 -64 3 -64 7 0 5 145 394 199 536
11 27 12 28 82 25 l72 -3 98 -260z m515 108 c65 -87 128 -176 141 -198 l23
-40 0 198 0 197 60 0 60 0 0 -285 0 -285 -62 0 -63 1 -125 165 c-69 91 -133
181 -143 200 -9 19 -18 34 -20 34 -1 0 -2 -89 -2 -197 l0 -198 -57 -3 -58 -3
0 286 0 285 64 0 64 0 118 -157z m1492 105 l-3 -53 -102 -3 -103 -3 0 -54 0
-55 106 0 105 0 -3 -52 -3 -53 -102 -3 -103 -3 0 -64 0 -64 103 -3 102 -3 0
-50 0 -50 -167 -3 -168 -2 0 285 0 285 171 0 170 0 -3 -52z"/>
<path d="M3857 5703 c-8 -14 -237 -571 -237 -577 0 -3 108 -6 240 -6 132 0
240 2 240 5 0 7 -231 578 -235 583 -2 2 -5 0 -8 -5z"/>
<path d="M4900 4029 l0 -72 47 6 c59 6 88 36 79 82 -8 40 -31 55 -83 55 l-43
0 0 -71z"/>
<path d="M5522 3970 c-18 -58 -33 -108 -32 -112 0 -5 32 -8 70 -8 39 0 70 1
70 3 0 1 -17 52 -38 112 l-37 110 -33 -105z"/>
<path d="M4181 1525 c-107 -34 -124 -86 -119 -382 4 -253 11 -279 89 -323 40
-22 55 -25 154 -25 99 0 114 3 154 25 79 44 86 69 89 327 2 137 -1 237 -8 262
-16 60 -53 98 -113 116 -62 18 -187 18 -246 0z m173 -111 c14 -13 16 -50 16
-245 0 -216 -1 -230 -20 -249 -26 -26 -64 -26 -90 0 -19 19 -20 33 -20 243 0
252 4 267 65 267 18 0 41 -7 49 -16z"/>
<path d="M9129 1525 c-94 -30 -138 -105 -125 -213 10 -84 28 -107 134 -176
116 -76 132 -92 139 -145 10 -70 -33 -110 -88 -81 -15 8 -19 22 -19 60 l0 50
-96 0 -96 0 7 -57 c9 -80 29 -116 76 -142 55 -31 164 -39 247 -17 114 29 147
71 147 186 0 105 -16 130 -140 207 -126 79 -135 89 -135 164 0 53 3 61 24 70
42 19 66 -3 66 -61 l0 -50 91 0 92 0 -6 62 c-6 68 -26 102 -77 132 -44 26
-176 32 -241 11z"/>
<path d="M504 1503 c4 -16 24 -163 46 -328 22 -165 42 -317 46 -337 l6 -38 93
0 93 0 6 27 c3 16 24 144 47 286 23 141 45 257 50 257 4 0 13 -33 19 -72 7
-40 29 -167 49 -283 l36 -210 93 -3 c50 -1 92 -1 93 0 0 2 26 165 58 363 l57
360 -74 3 c-41 2 -76 1 -78 -1 -2 -2 -11 -111 -21 -243 -9 -131 -18 -241 -20
-243 -2 -2 -5 -2 -8 1 -5 5 -85 456 -85 478 0 6 -44 10 -108 10 l-108 0 -40
-245 c-21 -135 -42 -245 -45 -245 -6 0 -13 91 -25 353 l-7 137 -89 0 -90 0 6
-27z"/>
<path d="M1452 1168 l3 -363 88 -3 87 -3 0 366 0 365 -90 0 -90 0 2 -362z"/>
<path d="M1780 1475 l0 -54 68 -3 67 -3 3 -307 2 -308 90 0 90 0 0 310 0 310
70 0 70 0 0 55 0 55 -230 0 -230 0 0 -55z"/>
<path d="M2380 1165 l0 -366 88 3 87 3 3 163 2 162 65 0 65 0 0 -165 0 -166
88 3 87 3 3 363 2 362 -90 0 -90 0 0 -145 0 -145 -65 0 -65 0 0 145 0 145 -90
0 -90 0 0 -365z"/>
<path d="M3441 1503 c6 -15 41 -107 77 -203 l67 -175 5 -160 5 -160 88 -3 87
-3 0 148 1 148 82 215 83 215 -75 3 c-45 2 -77 -1 -81 -8 -4 -6 -22 -74 -40
-151 -18 -77 -36 -142 -40 -144 -4 -2 -25 64 -47 148 l-40 152 -91 3 -92 3 11
-28z"/>
<path d="M4740 1243 c0 -178 4 -303 11 -328 25 -91 118 -133 266 -122 92 7
148 36 177 92 20 38 21 59 24 343 l3 302 -91 0 -90 0 0 -298 c0 -277 -1 -300
-18 -315 -24 -22 -65 -22 -85 1 -15 16 -17 56 -19 313 l-3 294 -87 3 -88 3 0
-288z"/>
<path d="M5955 1498 c-4 -18 -40 -179 -81 -356 -41 -178 -74 -328 -74 -333 0
-6 33 -9 78 -7 l77 3 16 75 15 75 79 0 79 0 7 -30 c4 -16 10 -51 14 -77 l6
-48 85 0 c67 0 84 3 84 15 0 8 -31 168 -70 356 -38 189 -70 346 -70 351 0 4
-54 8 -119 8 l-119 0 -7 -32z m151 -265 c13 -86 20 -161 18 -165 -6 -10 -101
-11 -107 0 -3 4 8 79 24 167 16 88 29 162 29 164 0 2 3 1 7 -2 3 -4 17 -78 29
-164z"/>
<path d="M6480 1165 l0 -365 195 0 195 0 0 55 0 55 -105 0 -105 0 0 310 0 310
-90 0 -90 0 0 -365z"/>
<path d="M6910 1522 c0 -5 20 -164 45 -353 25 -189 45 -350 45 -356 0 -10 26
-13 95 -13 68 0 97 4 100 13 2 6 23 129 45 272 23 143 44 267 47 275 9 25 20
-20 63 -270 22 -129 43 -247 46 -262 l6 -28 88 0 c49 0 91 4 94 8 3 5 28 157
56 338 28 181 53 342 56 357 l6 28 -79 -3 -78 -3 -17 -210 c-9 -115 -17 -225
-17 -242 -2 -77 -18 -19 -55 195 -22 125 -41 235 -44 245 -4 15 -18 17 -108
17 -99 0 -104 -1 -109 -22 -5 -23 -75 -455 -75 -464 0 -3 -4 -3 -9 0 -4 3 -11
90 -15 193 -3 103 -9 212 -12 241 l-6 52 -84 0 c-46 0 -84 -4 -84 -8z"/>
<path d="M7935 1498 c-4 -18 -40 -179 -81 -357 -41 -178 -74 -328 -74 -333 0
-5 35 -8 78 -6 l77 3 16 75 15 75 80 0 79 0 14 -77 13 -78 84 0 c67 0 84 3 84
15 0 8 -31 168 -70 356 -38 189 -70 346 -70 351 0 4 -54 8 -119 8 l-119 0 -7
-32z m151 -264 c13 -87 21 -161 18 -166 -6 -10 -101 -11 -107 0 -3 4 8 79 24
167 16 88 29 162 29 164 0 2 3 2 6 -2 3 -3 17 -77 30 -163z"/>
<path d="M8401 1448 c17 -46 53 -143 80 -216 l49 -134 0 -149 0 -149 90 0 90
0 0 147 0 146 80 209 c44 116 80 214 80 219 0 5 -34 9 -75 9 l-74 0 -10 -37
c-5 -21 -22 -85 -36 -143 -31 -125 -34 -135 -41 -127 -3 3 -23 72 -43 154
l-37 148 -92 3 -92 3 31 -83z"/>
</g>
</svg>
